<?xml version="1.0" standalone="no"?><!DOCTYPE svg PUBLIC "-//W3C//DTD SVG 1.1//EN" "http://www.w3.org/Graphics/SVG/1.1/DTD/svg11.dtd"><svg class="icon" width="64px" height="64.00px" viewBox="0 0 1024 1024" version="1.1" xmlns="http://www.w3.org/2000/svg"><path fill="#00a0e9" d="M886.314667 885.504l-109.653334-109.653333a403.413333 403.413333 0 0 0 118.314667-285.696C894.976 266.922667 713.386667 85.333333 490.154667 85.333333 266.965333 85.333333 85.333333 266.922667 85.333333 490.154667c0 7.338667 0.213333 14.634667 0.597334 21.930666a31.189333 31.189333 0 0 0 62.208-3.370666 335.701333 335.701333 0 0 1-0.512-18.56c0-188.885333 153.685333-342.528 342.528-342.528 188.885333 0 342.570667 153.642667 342.570666 342.528 0 188.842667-153.685333 342.528-342.613333 342.528a341.589333 341.589333 0 0 1-232.149333-90.666667 31.146667 31.146667 0 0 0-42.24 45.738667 403.584 403.584 0 0 0 513.28 28.501333l113.28 113.28a30.976 30.976 0 0 0 44.032 0 31.146667 31.146667 0 0 0 0-44.032M467.456 676.437333l244.48-246.442666a31.104 31.104 0 1 0-44.117333-43.861334l-201.642667 203.221334L316.16 447.146667 119.466667 635.093333a31.146667 31.146667 0 0 0 43.093333 45.056l153.813333-146.986666 151.04 143.274666z" /></svg>