<?xml version="1.0" standalone="no"?><!DOCTYPE svg PUBLIC "-//W3C//DTD SVG 1.1//EN" "http://www.w3.org/Graphics/SVG/1.1/DTD/svg11.dtd"><svg class="icon" width="64px" height="64.00px" viewBox="0 0 1024 1024" version="1.1" xmlns="http://www.w3.org/2000/svg"><path fill="#00a0e9" d="M377.582933 467.2H198.365867c-49.288533 0-89.608533-40.328533-89.608534-89.617067V198.365867c0-49.288533 40.32-89.608533 89.608534-89.608534h179.217066c49.288533 0 89.608533 40.32 89.608534 89.608534v179.217066c0 49.288533-40.32 89.608533-89.6 89.608534z m-174.933333-307.2256a42.496 42.496 0 0 0-42.666667 42.666667v170.666666c0 23.7056 18.952533 42.666667 42.666667 42.666667h170.666667c23.697067 0 42.666667-18.961067 42.666666-42.666667v-170.666666c0-23.7056-18.9696-42.666667-42.666666-42.666667h-170.666667z m174.933333 755.268267H198.365867c-49.288533 0-89.608533-40.32-89.608534-89.608534V646.417067c0-49.288533 40.32-89.608533 89.608534-89.608534h179.217066c49.288533 0 89.608533 40.32 89.608534 89.6v179.2256c0 49.288533-40.32 89.608533-89.6 89.608534z m-174.933333-307.217067a42.496 42.496 0 0 0-42.666667 42.666667v170.666666c0 23.7056 18.952533 42.666667 42.666667 42.666667h170.666667c23.697067 0 42.666667-18.961067 42.666666-42.666667v-170.666666c0-23.7056-18.9696-42.666667-42.666666-42.666667h-170.666667z m443.767467 307.217067c-49.288533 0-89.608533-40.32-89.608534-89.608534V646.417067c0-49.288533 40.32-89.608533 89.6-89.608534h179.2256c49.288533 0 89.608533 40.32 89.608534 89.6v89.617067c0 12.4416-12.629333 22.4-25.070934 22.4-12.450133 0-26.683733-9.352533-26.683733-21.802667V650.6752A44.6208 44.6208 0 0 0 818.688 605.866667l-168.021333-0.597334A44.6208 44.6208 0 0 0 605.866667 650.069333v167.458134a44.6208 44.6208 0 0 0 44.8 44.808533h89.617066c12.4416 0 18.141867 13.824 18.141867 26.282667 0 12.4416-9.9584 26.624-22.4 26.624H646.417067z m179.217066-448.0512H646.417067c-49.288533 0-89.608533-40.32-89.608534-89.6V198.357333c0-49.288533 40.32-89.608533 89.6-89.608533h179.2256c49.288533 0 89.608533 40.32 89.608534 89.608533v179.217067c0 49.288533-40.32 89.608533-89.608534 89.608533zM650.692267 159.9744a42.496 42.496 0 0 0-42.666667 42.666667v170.666666c0 23.7056 18.961067 42.666667 42.666667 42.666667h170.666666c23.7056 0 42.666667-18.961067 42.666667-42.666667v-170.666666c0-23.7056-18.961067-42.666667-42.666667-42.666667h-170.666666z" /></svg>